name C:\Users\antoi\Documents\MyRepositories\upper-imu-dc\Results\main_tracking\Case_96\kinematics.mot
datacolumns 43
datarows 4
range 3.00000000 3.06000000
endheader 
time	clav_prot	clav_elev	scapula_abduction	scapula_elevation	scapula_upward_rot	scapula_winging	plane_elv	shoulder_elv	axial_rot	TrapeziusScapula_M/activation	TrapeziusScapula_S/activation	TrapeziusScapula_I/activation	TrapeziusClavicle_S/activation	SerratusAnterior_I/activation	SerratusAnterior_M/activation	SerratusAnterior_S/activation	Rhomboideus_S/activation	Rhomboideus_I/activation	LevatorScapulae/activation	Coracobrachialis/activation	DeltoideusClavicle_A/activation	DeltoideusScapula_P/activation	DeltoideusScapula_M/activation	LatissimusDorsi_S/activation	LatissimusDorsi_M/activation	LatissimusDorsi_I/activation	PectoralisMajorClavicle_S/activation	PectoralisMajorThorax_I/activation	PectoralisMajorThorax_M/activation	TeresMajor/activation	Infraspinatus_I/activation	Infraspinatus_S/activation	PectoralisMinor/activation	TeresMinor/activation	Subscapularis_S/activation	Subscapularis_M/activation	Subscapularis_I/activation	Supraspinatus_P/activation	Supraspinatus_A/activation	TRIlong/activation	BIC_long/activation	BIC_brevis/activation	
          3.00000000	        -24.44391603	         -5.05689946	        -10.38124057	         -5.46189893	         15.78186058	          5.02803592	        -43.94738926	         11.26593582	         65.73555536	          0.02014103	          0.01605931	          0.01323922	          0.02681200	          0.01785878	          0.03287865	          0.03645306	          0.03159158	          0.04659648	          0.04997048	          0.03474477	          0.01583071	          0.10203091	          0.01000001	          0.02903025	          0.03083457	          0.02930570	          0.02346251	          0.03126169	          0.03300100	          0.15860304	          0.01465298	          0.01449188	          0.03417499	          0.02027626	          0.06196900	          0.05694186	          0.08904098	          0.02451460	          0.02148428	          0.16065140	          0.01549133	          0.03610976	
          3.02000000	        -22.71674670	         -5.14364676	        -11.00695950	         -5.34673496	         15.57772043	          5.05098938	        -43.06414756	         11.17243529	         64.99396292	          0.02516478	          0.02277997	          0.01970912	          0.03499745	          0.01997912	          0.03590127	          0.04245744	          0.04094470	          0.06047667	          0.06122418	          0.03929559	          0.01887898	          0.11500088	          0.01373780	          0.03646052	          0.03786750	          0.03631657	          0.02710134	          0.03542128	          0.03576552	          0.16734117	          0.01826229	          0.01836901	          0.04280239	          0.02611034	          0.06808747	          0.06381733	          0.09582981	          0.03071698	          0.02577326	          0.17041570	          0.01834209	          0.03998080	
          3.04000000	        -22.99214275	         -5.04074360	        -11.60400447	         -5.24457399	         15.41750667	          5.06255437	        -42.18904602	         11.11532211	         64.24025121	          0.03095944	          0.02739072	          0.02346830	          0.03900299	          0.02216971	          0.03763056	          0.04596049	          0.04548773	          0.06547129	          0.06404985	          0.04180889	          0.02131197	          0.12070619	          0.01473388	          0.04115509	          0.04249368	          0.04046205	          0.03010193	          0.03641323	          0.03667333	          0.16587637	          0.01999094	          0.02032595	          0.04572392	          0.02949646	          0.07091276	          0.06786240	          0.09967751	          0.03456650	          0.02916850	          0.17066904	          0.02076771	          0.04236933	
          3.06000000	        -23.30449934	         -4.94994648	        -12.23671329	         -5.16424025	         15.29833857	          5.06727744	        -41.31251164	         11.09848581	         63.42961534	          0.03412295	          0.03156558	          0.02576813	          0.04183275	          0.02379187	          0.03886140	          0.04714207	          0.04833095	          0.06768806	          0.06518980	          0.04136957	          0.02243767	          0.12498353	          0.01798443	          0.04371820	          0.04484617	          0.04268612	          0.03032988	          0.03511237	          0.03493870	          0.16453579	          0.02069307	          0.02202604	          0.04713165	          0.03105293	          0.07204150	          0.06991137	          0.10188647	          0.03667370	          0.03062019	          0.16984927	          0.02206555	          0.04121188	
